<svg width="9" height="12" viewBox="0 0 9 12" fill="none" xmlns="http://www.w3.org/2000/svg">
<path d="M8.05977 8.01037L4.87473 11.1954C4.77672 11.2954 4.64316 11.3527 4.50314 11.3547C4.43209 11.3546 4.36174 11.3405 4.29615 11.3132C4.23056 11.2858 4.17101 11.2458 4.12094 11.1954L0.935901 8.01037C0.835942 7.91041 0.779785 7.77484 0.779785 7.63347C0.779785 7.49211 0.835942 7.35654 0.935901 7.25658C1.03586 7.15662 1.17143 7.10046 1.3128 7.10046C1.45416 7.10046 1.58973 7.15662 1.68969 7.25658L3.96169 9.52857V0.53084C3.96388 0.390735 4.02051 0.256982 4.11959 0.157901C4.21867 0.05882 4.35242 0.00218953 4.49253 0C4.63331 0 4.76833 0.0559274 4.86789 0.155479C4.96744 0.255031 5.02337 0.390052 5.02337 0.53084V9.54449L7.30598 7.25127C7.35547 7.20177 7.41423 7.16251 7.4789 7.13573C7.54356 7.10894 7.61287 7.09515 7.68287 7.09515C7.75287 7.09515 7.82218 7.10894 7.88685 7.13573C7.95151 7.16251 8.01027 7.20177 8.05977 7.25127C8.10926 7.30076 8.14852 7.35952 8.17531 7.42419C8.2021 7.48886 8.21588 7.55817 8.21588 7.62816C8.21588 7.69816 8.2021 7.76747 8.17531 7.83214C8.14852 7.89681 8.10926 7.95557 8.05977 8.00506V8.01037Z" fill="#555555"/>
</svg>
