<svg width="19" height="20" viewBox="0 0 19 20" fill="none" xmlns="http://www.w3.org/2000/svg">
<path d="M15.461 3.53344C16.3859 4.45567 17.084 5.58012 17.5003 6.81816C17.9165 8.05621 18.0395 9.374 17.8596 10.6677C17.6796 11.9614 17.2017 13.1956 16.4634 14.2731C15.7251 15.3505 14.7467 16.2418 13.6052 16.8766C12.4682 17.491 11.2063 17.8387 9.91504 17.8936C8.6238 17.9484 7.33699 17.7088 6.15197 17.193C4.96695 16.6772 3.91474 15.8987 3.07495 14.9163C2.23516 13.9339 1.62978 12.7734 1.3046 11.5226C0.966027 10.113 0.992599 8.6403 1.3818 7.24382C1.771 5.84735 2.50996 4.57322 3.52881 3.54193C4.00763 3.05356 3.25702 2.30189 2.77821 2.79133C1.22536 4.34586 0.259538 6.3907 0.0452785 8.57747C-0.168981 10.7642 0.381582 12.9577 1.60317 14.784C2.82475 16.6104 4.64178 17.9567 6.7447 18.5936C8.84761 19.2305 11.1063 19.1186 13.1359 18.277C14.5794 17.6792 15.8531 16.7346 16.8442 15.5268C17.8353 14.319 18.5131 12.8854 18.8176 11.353C19.1221 9.82063 19.0439 8.23678 18.5899 6.74185C18.1359 5.24692 17.3201 3.88707 16.2148 2.78283C15.736 2.2934 14.9854 3.04507 15.4642 3.53344H15.461Z" fill="#555555"/>
<path d="M13.0598 8.01037L9.87473 11.1954C9.77672 11.2954 9.64316 11.3527 9.50314 11.3547C9.43209 11.3546 9.36174 11.3405 9.29615 11.3132C9.23056 11.2858 9.17101 11.2458 9.12094 11.1954L5.9359 8.01037C5.83594 7.91041 5.77979 7.77484 5.77979 7.63347C5.77979 7.49211 5.83594 7.35654 5.9359 7.25658C6.03586 7.15662 6.17143 7.10046 6.3128 7.10046C6.45416 7.10046 6.58973 7.15662 6.68969 7.25658L8.96169 9.52857V0.53084C8.96388 0.390735 9.02051 0.256982 9.11959 0.157901C9.21867 0.05882 9.35242 0.00218953 9.49253 0C9.63331 0 9.76833 0.0559274 9.86789 0.155479C9.96744 0.255031 10.0234 0.390052 10.0234 0.53084V9.54449L12.306 7.25127C12.3555 7.20177 12.4142 7.16251 12.4789 7.13573C12.5436 7.10894 12.6129 7.09515 12.6829 7.09515C12.7529 7.09515 12.8222 7.10894 12.8868 7.13573C12.9515 7.16251 13.0103 7.20177 13.0598 7.25127C13.1093 7.30076 13.1485 7.35952 13.1753 7.42419C13.2021 7.48886 13.2159 7.55817 13.2159 7.62816C13.2159 7.69816 13.2021 7.76747 13.1753 7.83214C13.1485 7.89681 13.1093 7.95557 13.0598 8.00506V8.01037Z" fill="#555555"/>
</svg>
