<svg width="16" height="14" viewBox="0 0 16 14" fill="none" xmlns="http://www.w3.org/2000/svg">
<path d="M0 2.24808C0 0.504017 1.90343 -0.574518 3.39946 0.323326L11.3185 5.07517C12.7718 5.9472 12.7718 8.05265 11.3185 8.92468L3.40059 13.6765C1.90455 14.5744 0.00112222 13.4969 0.00112222 11.7518L0 2.24808ZM10.1636 6.99992L2.24461 2.24808V11.7518L10.1636 6.99992ZM14.59 0.266089C14.8876 0.266089 15.1731 0.384332 15.3836 0.594805C15.594 0.805278 15.7123 1.09074 15.7123 1.38839V12.6115C15.7123 12.9091 15.594 13.1946 15.3836 13.405C15.1731 13.6155 14.8876 13.7338 14.59 13.7338C14.2923 13.7338 14.0069 13.6155 13.7964 13.405C13.5859 13.1946 13.4677 12.9091 13.4677 12.6115V1.38839C13.4677 1.09074 13.5859 0.805278 13.7964 0.594805C14.0069 0.384332 14.2923 0.266089 14.59 0.266089Z" fill="black"/>
</svg>
