<svg width="34" height="34" viewBox="0 0 34 34" fill="none" xmlns="http://www.w3.org/2000/svg">
<path d="M12.75 12.4525V21.5475C12.75 22.2275 13.0475 22.7233 13.6425 23.035C14.2375 23.3467 14.8183 23.3183 15.385 22.95L22.44 18.445C22.9783 18.1333 23.2475 17.6517 23.2475 17C23.2475 16.3483 22.9783 15.8667 22.44 15.555L15.385 11.05C14.8183 10.6817 14.2375 10.6533 13.6425 10.965C13.0475 11.2767 12.75 11.7725 12.75 12.4525ZM17 34C14.6483 34 12.4383 33.5535 10.37 32.6604C8.30167 31.7685 6.5025 30.5575 4.9725 29.0275C3.4425 27.4975 2.23153 25.6983 1.3396 23.63C0.446534 21.5617 0 19.3517 0 17C0 14.6483 0.446534 12.4383 1.3396 10.37C2.23153 8.30167 3.4425 6.5025 4.9725 4.9725C6.5025 3.4425 8.30167 2.23097 10.37 1.3379C12.4383 0.445967 14.6483 0 17 0C19.3517 0 21.5617 0.445967 23.63 1.3379C25.6983 2.23097 27.4975 3.4425 29.0275 4.9725C30.5575 6.5025 31.7685 8.30167 32.6604 10.37C33.5535 12.4383 34 14.6483 34 17C34 19.3517 33.5535 21.5617 32.6604 23.63C31.7685 25.6983 30.5575 27.4975 29.0275 29.0275C27.4975 30.5575 25.6983 31.7685 23.63 32.6604C21.5617 33.5535 19.3517 34 17 34ZM17 30.6C20.7683 30.6 23.9774 29.2757 26.6271 26.6271C29.2757 23.9774 30.6 20.7683 30.6 17C30.6 13.2317 29.2757 10.0226 26.6271 7.3729C23.9774 4.7243 20.7683 3.4 17 3.4C13.2317 3.4 10.0232 4.7243 7.3746 7.3729C4.72487 10.0226 3.4 13.2317 3.4 17C3.4 20.7683 4.72487 23.9774 7.3746 26.6271C10.0232 29.2757 13.2317 30.6 17 30.6Z" fill="black"/>
</svg>
