<svg width="34" height="34" viewBox="0 0 34 34" fill="none" xmlns="http://www.w3.org/2000/svg">
<path d="M13.6 23.8C14.535 23.8 15.3 23.035 15.3 22.1V11.9C15.3 10.965 14.535 10.2 13.6 10.2C12.665 10.2 11.9 10.965 11.9 11.9V22.1C11.9 23.035 12.665 23.8 13.6 23.8ZM17 0C7.616 0 0 7.616 0 17C0 26.384 7.616 34 17 34C26.384 34 34 26.384 34 17C34 7.616 26.384 0 17 0ZM17 30.6C9.503 30.6 3.4 24.497 3.4 17C3.4 9.503 9.503 3.4 17 3.4C24.497 3.4 30.6 9.503 30.6 17C30.6 24.497 24.497 30.6 17 30.6ZM20.4 23.8C21.335 23.8 22.1 23.035 22.1 22.1V11.9C22.1 10.965 21.335 10.2 20.4 10.2C19.465 10.2 18.7 10.965 18.7 11.9V22.1C18.7 23.035 19.465 23.8 20.4 23.8Z" fill="black"/>
</svg>
