<svg width="16" height="14" viewBox="0 0 16 14" fill="none" xmlns="http://www.w3.org/2000/svg">
<path d="M15.7122 11.7519C15.7122 13.496 13.8087 14.5745 12.3127 13.6767L4.39371 8.92483C2.94032 8.0528 2.94032 5.94735 4.39371 5.07532L12.3116 0.323483C13.8076 -0.574363 15.711 0.503051 15.711 2.24824L15.7122 11.7519ZM5.54856 7.00008L13.4675 11.7519V2.24824L5.54856 7.00008ZM1.12218 13.7339C0.824531 13.7339 0.539067 13.6157 0.328594 13.4052C0.118121 13.1947 -0.000120163 12.9093 -0.000120163 12.6116V1.38855C-0.000120163 1.0909 0.118121 0.805431 0.328594 0.594958C0.539067 0.384485 0.824531 0.266244 1.12218 0.266244C1.41984 0.266244 1.7053 0.384485 1.91578 0.594958C2.12625 0.805431 2.24449 1.0909 2.24449 1.38855V12.6116C2.24449 12.9093 2.12625 13.1947 1.91578 13.4052C1.7053 13.6157 1.41984 13.7339 1.12218 13.7339Z" fill="black"/>
</svg>
