<svg width="15" height="15" viewBox="0 0 15 15" fill="none" xmlns="http://www.w3.org/2000/svg">
<path d="M7.5 0C3.35789 0 0 3.35795 0 7.5C0 11.6423 3.35795 15 7.5 15C11.6424 15 15 11.6423 15 7.5C15 3.35824 11.6424 0.000410156 7.49988 0.000410156L7.49994 5.85938e-05L7.5 0ZM10.9394 10.8172C10.805 11.0375 10.5166 11.1074 10.2963 10.9721C8.53541 9.89654 6.31869 9.65291 3.70805 10.2494C3.58716 10.2769 3.46029 10.2553 3.35533 10.1893C3.25038 10.1233 3.17593 10.0183 3.14836 9.89742C3.13462 9.83758 3.13282 9.77562 3.14306 9.71508C3.1533 9.65454 3.17538 9.59662 3.20803 9.54462C3.24069 9.49263 3.28328 9.44759 3.33336 9.41208C3.38345 9.37657 3.44005 9.35128 3.49992 9.33768C6.35695 8.68494 8.80752 8.96596 10.7845 10.1742C11.0048 10.3094 11.0746 10.5969 10.9394 10.8172ZM11.8574 8.77506C11.688 9.05016 11.328 9.13705 11.0531 8.96777C9.03715 7.72863 5.96408 7.36975 3.57961 8.09356C3.27035 8.18695 2.94375 8.0127 2.84988 7.70397C2.75672 7.39471 2.93109 7.06869 3.23982 6.97471C5.96355 6.14818 9.34969 6.54855 11.6648 7.97121C11.9398 8.14055 12.0267 8.50049 11.8574 8.77506ZM11.9362 6.64852C9.51896 5.21273 5.5309 5.08066 3.22307 5.78121C2.85246 5.89359 2.46053 5.68436 2.34826 5.31375C2.23594 4.94297 2.44494 4.55133 2.81584 4.43865C5.46504 3.63439 9.86918 3.78984 12.6521 5.44195C12.9862 5.63977 13.0954 6.07031 12.8975 6.40318C12.7005 6.73658 12.2688 6.84645 11.9365 6.64852H11.9362Z" fill="white"/>
</svg>
